<svg width="24" height="24" viewBox="0 0 24 24" fill="none" xmlns="http://www.w3.org/2000/svg">
<path fill-rule="evenodd" clip-rule="evenodd" d="M12 10.93L17.719 5.21003C17.865 5.06403 18.058 4.99103 18.25 4.99103C18.654 4.99103 19 5.31503 19 5.74003C19 5.93303 18.927 6.12503 18.781 6.27203L13.061 11.991L18.78 17.71C18.927 17.857 19 18.049 19 18.241C19 18.668 18.651 18.991 18.25 18.991C18.058 18.991 17.865 18.918 17.719 18.772L12 13.053L6.281 18.772C6.135 18.918 5.942 18.991 5.75 18.991C5.349 18.991 5 18.668 5 18.241C5 18.049 5.073 17.857 5.22 17.71L10.939 11.991L5.219 6.27203C5.073 6.12503 5 5.93303 5 5.74003C5 5.31503 5.346 4.99103 5.75 4.99103C5.942 4.99103 6.135 5.06403 6.281 5.21003L12 10.93Z" fill="black"/>
</svg>
