<svg width="24" height="24" viewBox="0 0 24 24" fill="none" xmlns="http://www.w3.org/2000/svg">
<path d="M10.118 16.064C12.411 15.535 14.546 15.071 13.512 13.119C10.366 7.177 12.678 4 16 4C19.388 4 21.644 7.299 18.488 13.119C17.423 15.083 19.637 15.546 21.882 16.064C23.868 16.523 24 17.494 24 19.175L23.997 20H8.003C8.003 17.804 7.827 16.593 10.118 16.064ZM0.002 20H6.003C5.975 13.458 8.998 16.303 8.998 11.099C8.998 9.09 7.687 8 6 8C3.508 8 1.774 10.383 4.134 14.839C4.909 16.303 3.309 16.651 1.589 17.048C0.099 17.392 0 18.12 0 19.381L0.002 20Z" fill="#293462"/>
</svg>
