<svg width="24" height="24" viewBox="0 0 24 24" fill="none" xmlns="http://www.w3.org/2000/svg">
<path d="M10.119 16.064C12.412 15.534 14.546 15.07 13.513 13.118C10.366 7.177 12.678 4 16.001 4C19.389 4 21.644 7.299 18.489 13.119C17.424 15.083 19.638 15.546 21.882 16.065C23.867 16.523 24 17.493 24 19.172L23.997 20H22.668C22.668 17.911 22.751 17.633 21.442 17.331C19.541 16.893 17.747 16.479 17.091 15.027C16.852 14.497 16.696 13.625 17.317 12.484C18.689 9.952 19.036 7.758 18.266 6.467C17.364 4.95 14.649 4.958 13.754 6.445C12.986 7.718 13.328 9.924 14.69 12.495C15.297 13.641 15.137 14.511 14.896 15.038C14.236 16.483 12.424 16.901 10.506 17.343C9.254 17.633 9.334 17.931 9.334 20H8.003C8.003 17.804 7.827 16.594 10.119 16.064ZM0.002 20H1.331C1.331 18.082 1.145 18.615 3.155 18.027C4.169 17.732 5.065 17.304 5.471 16.415C5.683 15.952 5.826 15.195 5.309 14.218C4.357 12.42 4.09 10.844 4.597 10.003C5.144 9.094 6.867 9.095 7.416 10.018C8.351 11.585 6.623 14 6.396 15H7.792C8.232 14 8.998 12.792 8.998 11.1C8.998 9.09 7.686 8 6 8C3.507 8 1.773 10.383 4.134 14.839C4.908 16.303 3.308 16.651 1.589 17.048C0.099 17.393 0 18.12 0 19.382L0.002 20Z" fill="#293462"/>
</svg>
