<svg width="24" height="24" viewBox="0 0 24 24" fill="none" xmlns="http://www.w3.org/2000/svg">
<path d="M4.48098 15.659C3.14698 19.575 3.00098 19.891 3.00098 20.246C3.00098 20.774 3.46098 20.995 3.74998 20.995C4.10198 20.995 4.41798 20.858 8.32398 19.503L4.48098 15.659ZM5.54098 14.598L9.38698 18.444L20.708 7.133C20.903 6.938 21.001 6.683 21.001 6.426C21.001 6.171 20.903 5.916 20.708 5.72C20.016 5.029 18.966 3.98 18.273 3.288C18.078 3.093 17.822 2.995 17.566 2.995C17.312 2.995 17.056 3.093 16.86 3.288L5.54098 14.598Z" fill="#293462"/>
</svg>
