<svg width="24" height="24" viewBox="0 0 24 24" fill="none" xmlns="http://www.w3.org/2000/svg">
<path d="M20.465 14.646C21.863 16.162 20.309 18.595 18.319 17.873C19.781 17.562 20.789 16.383 20.465 14.646ZM4.317 17.873C6.307 18.595 7.862 16.163 6.463 14.646C6.788 16.383 5.78 17.562 4.317 17.873ZM16.871 4.312C16.589 3.548 15.861 3 15 3C13.702 3 12.687 4.244 13.096 5.582C14.207 5.187 15.442 4.479 16.871 4.312ZM24 16C24 18.761 21.762 21 19 21C14.961 21 14.844 16.877 12 16.877C9.156 16.877 9.039 21 5 21C2.238 21 0 18.761 0 16C0 13.865 1.535 11.433 3.941 7.179C5.849 3.807 8.695 5.919 10.756 6.594C11.537 6.85 12.41 6.866 13.242 6.594C15.304 5.92 18.15 3.807 20.057 7.179C22.465 11.433 24 13.865 24 16ZM8 16C8 14.346 6.654 13 5 13C3.346 13 2 14.346 2 16C2 17.654 3.346 19 5 19C6.654 19 8 17.654 8 16ZM13 14C13 13.448 12.553 13 12 13C11.447 13 11 13.448 11 14C11 14.552 11.447 15 12 15C12.553 15 13 14.552 13 14ZM22 16C22 14.346 20.654 13 19 13C17.346 13 16 14.346 16 16C16 17.654 17.346 19 19 19C20.654 19 22 17.654 22 16ZM9 3C8.139 3 7.411 3.548 7.129 4.312C8.558 4.48 9.793 5.187 10.904 5.582C11.313 4.244 10.298 3 9 3Z" fill="#293462"/>
</svg>
