<svg width="24" height="24" viewBox="0 0 24 24" fill="none" xmlns="http://www.w3.org/2000/svg">
<path d="M4.01501 5.494H3.76201C3.34901 5.494 3.01501 5.159 3.01501 4.747C3.01501 4.335 3.34901 4 3.76201 4H9.01501V3C9.01501 2.465 9.48901 2 10.015 2H14.015C14.541 2 15.015 2.465 15.015 3V4H20.269C20.681 4 21.015 4.335 21.015 4.747C21.015 5.159 20.681 5.494 20.269 5.494H20.015V20.929C20.015 21.52 19.567 22 19.015 22C16.142 22 7.88801 22 5.01501 22C4.46301 22 4.01501 21.52 4.01501 20.929V5.494ZM18.515 5.494H5.51501V20.5H18.515V5.494ZM14.265 8C13.851 8 13.515 8.336 13.515 8.75V17.25C13.515 17.664 13.851 18 14.265 18C14.679 18 15.015 17.664 15.015 17.25V8.75C15.015 8.336 14.679 8 14.265 8ZM9.76501 8C9.35101 8 9.01501 8.336 9.01501 8.75V17.25C9.01501 17.664 9.35101 18 9.76501 18C10.179 18 10.515 17.664 10.515 17.25V8.75C10.515 8.336 10.179 8 9.76501 8ZM13.515 4V3.5H10.515V4H13.515Z" fill="#293462"/>
</svg>
